HIERARCHY
ROOT Hips
{
	OFFSET -0.179506 -22.333345 2.821913
	CHANNELS 6 Xposition Yposition Zposition Zrotation Yrotation Xrotation 
	JOINT LeftUpLeg
	{
		OFFSET 6.951974 -9.140623 -0.681533
		CHANNELS 3 Zrotation Yrotation Xrotation
		JOINT LeftLeg
		{
			OFFSET 3.427654 -37.519855 -0.449580
			CHANNELS 3 Zrotation Yrotation Xrotation
			JOINT LeftFoot
			{
				OFFSET -1.359570 -39.796059 -4.369333
				CHANNELS 3 Zrotation Yrotation Xrotation
				JOINT LeftToe
				{
					OFFSET 2.635814 -5.579078 11.928840
					CHANNELS 3 Zrotation Yrotation Xrotation
					End Site
					{
						OFFSET 0.000000 0.000000 0.000000
					}
				}
			}
		}
	}
	JOINT RightUpLeg
	{
		OFFSET -6.767048 -9.052170 -0.431982
		CHANNELS 3 Zrotation Yrotation Xrotation
		JOINT RightLeg
		{
			OFFSET -3.829005 -38.256897 -0.885003
			CHANNELS 3 Zrotation Yrotation Xrotation
			JOINT RightFoot
			{
				OFFSET 1.577377 -39.841461 -4.231180
				CHANNELS 3 Zrotation Yrotation Xrotation
				JOINT RightToe
				{
					OFFSET -2.537174 -4.814398 12.334795
					CHANNELS 3 Zrotation Yrotation Xrotation
					End Site
					{
						OFFSET 0.000000 0.000000 0.000000
					}
				}
			}
		}
	}
	JOINT Spine
	{
		OFFSET -0.253288 10.896323 -2.669631
		CHANNELS 3 Zrotation Yrotation Xrotation
		JOINT Spine1
		{
			OFFSET 0.548704 13.518043 0.109247
			CHANNELS 3 Zrotation Yrotation Xrotation
			JOINT Spine2
			{
				OFFSET 0.145701 5.292222 2.542457
				CHANNELS 3 Zrotation Yrotation Xrotation
				JOINT Neck
				{
					OFFSET -0.277840 21.387037 -4.285703
					CHANNELS 3 Zrotation Yrotation Xrotation
					JOINT Head
					{
						OFFSET 0.515184 6.496960 5.134897
						CHANNELS 3 Zrotation Yrotation Xrotation
						End Site
						{
							OFFSET 0.000000 0.000000 0.000000
						}
					}
				}
				JOINT LeftShoulder
				{
					OFFSET 7.884473 12.174932 -3.408961
					CHANNELS 3 Zrotation Yrotation Xrotation
					JOINT LeftArm
					{
						OFFSET 9.097692 3.046888 -0.886815
						CHANNELS 3 Zrotation Yrotation Xrotation
						JOINT LeftForeArm
						{
							OFFSET 25.961220 -1.277207 -2.745643
							CHANNELS 3 Zrotation Yrotation Xrotation
							JOINT LeftHand
							{
								OFFSET 24.923361 0.898606 -0.117091
								CHANNELS 3 Zrotation Yrotation Xrotation
								End Site
								{
									OFFSET 0.000000 0.000000 0.000000
								}
							}
						}
					}
				}
				JOINT RightShoulder
				{
					OFFSET -8.175920 11.883285 -3.861528
					CHANNELS 3 Zrotation Yrotation Xrotation
					JOINT RightArm
					{
						OFFSET -9.601238 3.255117 -0.914307
						CHANNELS 3 Zrotation Yrotation Xrotation
						JOINT RightForeArm
						{
							OFFSET -25.374195 -1.332924 -2.140099
							CHANNELS 3 Zrotation Yrotation Xrotation
							JOINT RightHand
							{
								OFFSET -25.529810 0.777228 -0.555919
								CHANNELS 3 Zrotation Yrotation Xrotation
								End Site
								{
									OFFSET 0.000000 0.000000 0.000000
								}
							}
						}
					}
				}
			}
		}
	}
}
MOTION
Frames: 16
Frame Time: 0.033333
-63.382721 162.295990 89.843727 -126.048160 4.615070 87.921334 12.592666 8.709219 -2.073409 -1.917006 9.926320 22.557424 2.786494 13.194185 -28.032653 nan nan nan -15.414701 -9.337913 -25.716305 2.921819 -12.096895 25.197612 8.092774 0.261358 -2.814498 nan nan nan -4.250530 -1.599390 2.859529 8.206197 -6.126854 10.305462 1.321216 -1.227134 -4.654052 3.560811 -13.803969 14.388052 5.858308 -18.128204 13.898932 -18.480958 -12.341516 4.264545 -68.079449 -43.769188 31.450217 146.766970 -63.780253 -116.910675 -3.345119 -21.995731 -6.133613 21.932201 4.425894 0.242528 49.288360 9.223682 -3.248926 -125.500724 49.568107 -107.012230 5.540778 12.685987 -9.335517 
-63.425636 162.257538 89.848923 -125.904943 4.574383 87.860937 12.475954 8.580500 -2.050527 -1.791692 9.989897 22.604960 2.861860 13.167916 -28.049892 nan nan nan -15.580646 -9.528269 -25.543750 3.023307 -12.175554 25.177682 8.143418 0.467062 -2.993881 nan nan nan -4.149376 -1.622702 3.041759 8.165778 -6.213069 10.252522 1.232215 -1.287827 -4.637965 3.610452 -13.389249 14.340758 5.753891 -18.018968 13.926076 -18.368659 -12.183810 4.111420 -68.332458 -43.748741 31.721343 146.626346 -63.729906 -116.572401 -3.462822 -22.143016 -6.359572 21.923635 4.605349 0.305188 49.528470 9.365754 -2.880559 -125.238219 48.916190 -106.242905 5.939639 12.719212 -9.529718 
-63.422932 162.317368 89.856644 -126.080136 4.535755 87.864571 12.504578 8.706589 -1.947266 -1.829627 10.076448 22.521379 2.818649 13.184781 -27.993563 nan nan nan -15.518208 -9.461788 -25.668835 2.992278 -12.055233 25.276202 8.104250 0.512243 -3.009554 nan nan nan -4.150694 -1.697742 3.058486 8.132406 -6.159818 10.102457 1.179533 -1.258187 -4.598325 3.384798 -13.467222 14.485344 5.856164 -17.997873 13.790780 -18.449108 -11.907913 4.085832 -68.164948 -43.673940 31.588438 147.043474 -63.768048 -117.134237 -3.250698 -22.036758 -6.525949 21.928354 4.395210 0.432510 49.503125 9.547749 -2.984536 -125.489592 49.417954 -106.645584 5.759397 12.702193 -9.400037 
-63.338982 162.325333 89.984520 -126.090090 4.213707 87.326299 12.256823 8.643401 -1.332952 -1.918604 9.981245 22.430520 2.884417 13.257671 -27.955949 nan nan nan -15.764909 -9.442657 -25.137972 2.892458 -11.820576 25.289245 8.145595 0.491628 -3.035697 nan nan nan -4.732134 -1.657970 3.991202 8.099885 -6.184142 9.954895 1.330631 -1.203013 -4.701130 3.523390 -13.259409 14.448578 5.942062 -18.087344 13.804333 -18.351668 -11.692114 3.852393 -68.238093 -43.630666 31.748464 146.981599 -63.777002 -117.252100 -3.460871 -22.199498 -6.260837 22.216980 4.410704 0.409547 49.422093 9.617129 -2.942323 -125.512522 49.455837 -107.011176 6.056240 12.735971 -8.728528 
-63.341206 162.303162 90.022987 -126.009786 4.187252 87.316943 12.182497 8.646428 -1.362670 -1.977825 9.825160 22.456179 2.724981 13.075602 -27.896637 nan nan nan -15.792812 -9.509331 -25.109585 2.826399 -11.914957 25.344466 8.303531 0.504560 -2.991263 nan nan nan -4.783967 -1.693982 4.141794 8.102031 -6.247035 9.673437 1.402820 -1.181573 -4.574264 3.451578 -13.075317 14.634787 6.073855 -18.121073 13.627889 -18.397710 -11.654763 3.726607 -68.403418 -43.472794 31.757844 147.150393 -63.850869 -117.449949 -3.663819 -22.346301 -5.911847 22.153206 4.609506 0.563738 49.518728 9.529779 -3.242605 -125.635612 49.292768 -107.293184 6.475429 12.785270 -8.237600 
-63.343185 162.280960 90.062294 -125.982584 4.251525 87.324058 12.243586 8.725631 -1.419842 -2.010306 9.721334 22.579357 2.624169 13.055492 -27.908221 nan nan nan -15.720090 -9.562174 -25.099026 2.853095 -11.968297 25.361256 8.496166 0.500372 -2.969081 nan nan nan -5.096534 -1.372436 4.014716 8.259948 -6.088604 9.562293 1.716493 -1.020656 -4.252840 3.842668 -13.505729 14.551808 6.079983 -18.380405 13.566747 -18.395711 -12.612509 3.895981 -68.645578 -43.653450 31.878348 146.259357 -64.126545 -116.627568 -3.641526 -22.735211 -5.591547 22.151272 4.884597 0.074030 49.262278 8.637832 -3.667383 -125.617716 48.785468 -107.307847 7.046047 12.807007 -8.023187 
-63.336288 162.277313 90.088799 -125.918330 4.277579 87.338316 12.284737 8.735407 -1.500234 -2.018122 9.726837 22.711441 2.610383 13.014030 -27.871942 nan nan nan -15.722395 -9.577446 -25.042670 2.918764 -12.001243 25.309666 8.528535 0.495621 -2.991246 nan nan nan -5.214371 -1.271898 3.955622 8.325614 -6.060698 9.557999 1.816531 -0.958473 -4.143734 3.997976 -13.741947 14.469285 6.000384 -18.408224 13.554568 -18.391565 -12.953994 4.028633 -68.534091 -43.750903 31.839393 146.010364 -64.112062 -116.292327 -3.624436 -22.764669 -5.696164 22.165921 4.981000 -0.153803 49.195449 8.346933 -3.637897 -125.529594 48.490360 -106.933956 7.115168 12.741992 -8.119961 
-63.352058 162.288193 90.102310 -125.872990 4.267322 87.344167 12.275096 8.733840 -1.522154 -1.995403 9.736866 22.755221 2.627719 12.949615 -27.845350 nan nan nan -15.776797 -9.585752 -24.979205 2.973697 -11.994124 25.271353 8.570749 0.521950 -2.905255 nan nan nan -5.260057 -1.262580 3.852454 8.344371 -6.092855 9.607183 1.830402 -0.940074 -4.057171 4.031993 -13.789663 14.415544 5.992621 -18.365323 13.562053 -18.406543 -13.076478 4.055215 -68.451423 -43.781021 31.739642 145.941885 -64.077868 -116.182652 -3.735163 -22.797988 -5.792181 22.147997 5.020980 -0.238143 49.203111 8.299152 -3.654430 -125.524372 48.452844 -106.925182 7.182416 12.745227 -8.115119 
-63.383324 162.288834 90.104622 -125.920925 4.267015 87.333668 12.273128 8.778950 -1.441490 -1.994309 9.731346 22.662835 2.642338 12.913594 -27.850556 nan nan nan -15.777456 -9.577002 -24.971235 2.995285 -11.947289 25.279156 8.628610 0.556952 -2.894464 nan nan nan -5.238822 -1.244520 3.701032 8.332115 -6.075106 9.767495 1.816520 -0.910953 -4.019410 4.030626 -13.808516 14.421734 6.047215 -18.401692 13.496589 -18.428660 -13.225928 4.100490 -68.377019 -43.776989 31.603811 145.930778 -64.006556 -116.159776 -3.847344 -22.777952 -5.749366 22.083762 5.090831 -0.232430 49.239384 8.263925 -3.786089 -125.581837 48.451635 -107.076785 7.230242 12.761601 -8.153225 
-63.402660 162.283798 90.102478 -125.975910 4.271832 87.352805 12.274008 8.789683 -1.394401 -1.976730 9.756958 22.554878 2.655307 12.913377 -27.905237 nan nan nan -15.733293 -9.564881 -25.016086 2.980402 -11.903556 25.292799 8.656138 0.556474 -3.037800 nan nan nan -5.209261 -1.224649 3.576457 8.312203 -6.047398 9.877542 1.818002 -0.917320 -4.004676 3.997404 -13.784386 14.420042 6.035873 -18.459592 13.497324 -18.426038 -13.282773 4.085189 -68.481267 -43.715282 31.616188 145.862701 -63.929310 -116.067199 -4.015938 -22.788948 -5.622251 22.066997 5.127222 -0.232066 49.200617 8.246908 -3.808261 -125.572832 48.445474 -107.041486 7.269345 12.749252 -8.165038 
-63.417015 162.288788 90.105286 -125.977431 4.251234 87.332853 12.239026 8.748204 -1.333660 -1.907769 9.799586 22.501357 2.678089 12.887132 -27.928696 nan nan nan -15.709939 -9.537534 -24.998151 2.876943 -11.896200 25.319827 8.617911 0.489107 -3.158509 nan nan nan -5.239835 -1.197068 3.543481 8.303458 -6.045948 9.923927 1.852234 -0.979794 -3.976121 4.028118 -13.709089 14.422618 5.999123 -18.490821 13.466134 -18.312179 -13.237132 3.987815 -68.952313 -43.516077 31.819189 145.680849 -63.841244 -115.750229 -4.197257 -22.867065 -5.579995 22.089909 5.131678 -0.227215 49.117961 8.312948 -3.738862 -125.474568 48.411591 -106.868325 7.328607 12.797843 -8.158604 
-63.423740 162.294037 90.107246 -125.960309 4.244021 87.311288 12.237691 8.727294 -1.325881 -1.893512 9.803224 22.542693 2.670925 12.840590 -27.910919 nan nan nan -15.709723 -9.515631 -24.977131 2.811650 -11.931815 25.351770 8.584199 0.433056 -3.199225 nan nan nan -5.259789 -1.166363 3.539757 8.315589 -6.046654 9.927426 1.887892 -1.047476 -3.941685 4.065080 -13.646106 14.488808 5.967328 -18.542680 13.375157 -18.171974 -13.181438 3.904954 -69.468865 -43.275983 32.012741 145.587067 -63.776530 -115.467101 -4.212097 -22.950046 -5.633803 22.049435 5.126248 -0.216804 49.106399 8.346999 -3.691187 -125.429881 48.422272 -106.747849 7.184251 12.893808 -8.204740 
-63.423046 162.298859 90.102936 -125.944855 4.244666 87.319367 12.223714 8.727822 -1.369155 -1.867418 9.780243 22.603983 2.677622 12.858818 -27.915682 nan nan nan -15.731964 -9.547610 -24.999279 2.846619 -11.953274 25.395967 8.596092 0.442160 -3.186455 nan nan nan -5.230426 -1.153437 3.512868 8.303659 -6.053016 9.931349 1.891100 -1.059408 -3.927612 4.013233 -13.685706 14.560923 5.949709 -18.560015 13.317070 -18.172640 -13.253904 3.909421 -69.283959 -43.253657 31.860236 145.671447 -63.779377 -115.581166 -4.083376 -23.019561 -5.759404 22.007683 5.165264 -0.221439 49.116215 8.278663 -3.755044 -125.487012 48.452907 -106.811220 7.168190 12.977080 -8.211701 
-63.411392 162.305817 90.094330 -125.937119 4.247211 87.358716 12.212841 8.710950 -1.464628 -1.877562 9.733316 22.682305 2.701857 12.978607 -27.957994 nan nan nan -15.749919 -9.560847 -25.068785 2.897182 -11.916203 25.440841 8.562817 0.430877 -3.192697 nan nan nan -5.219174 -1.161684 3.508966 8.299092 -6.061803 9.922716 1.878692 -1.033648 -3.935568 3.975205 -13.761407 14.524506 5.970533 -18.517912 13.331909 -18.256839 -13.327155 3.936040 -68.643133 -43.445637 31.562162 145.910325 -63.905380 -115.955160 -3.663625 -22.996085 -5.958731 22.006668 5.180190 -0.298735 49.096161 8.195721 -3.803052 -125.570966 48.517401 -106.925998 6.967229 12.972024 -8.215680 
-63.405743 162.311111 90.086990 -125.918832 4.247981 87.391290 12.207475 8.687735 -1.541491 -1.884488 9.706309 22.736042 2.733407 13.060674 -27.957449 nan nan nan -15.778164 -9.554111 -25.125415 2.944485 -11.887300 25.496893 8.526829 0.461101 -3.160231 nan nan nan -5.199053 -1.180782 3.466051 8.296863 -6.076065 9.967947 1.841969 -1.010665 -3.954041 3.975676 -13.809761 14.487691 5.969527 -18.462118 13.379561 -18.296459 -13.337879 3.965072 -68.235115 -43.613774 31.379004 146.037391 -63.990980 -116.133230 -3.459939 -22.930957 -6.141483 21.983186 5.172569 -0.353788 49.131972 8.174377 -3.809256 -125.562552 48.511398 -106.864140 6.816981 12.922783 -8.147067 
-63.405952 162.317001 90.084068 -125.912532 4.248956 87.395823 12.211932 8.689783 -1.553258 -1.883609 9.693454 22.745120 2.724784 13.066927 -27.958929 nan nan nan -15.772856 -9.543412 -25.139346 2.943503 -11.892711 25.518607 8.520531 0.467156 -3.148958 nan nan nan -5.188595 -1.188077 3.452500 8.303080 -6.078264 9.992770 1.834976 -1.005275 -3.966413 3.964887 -13.807350 14.478226 5.947256 -18.448963 13.398107 -18.306059 -13.333953 3.968818 -68.232624 -43.633932 31.397867 146.025224 -64.000030 -116.117164 -3.440570 -22.905895 -6.177132 21.980689 5.177103 -0.345536 49.129988 8.184464 -3.794517 -125.559385 48.492920 -106.843422 6.727050 12.906088 -8.160178 
